<svg xmlns="http://www.w3.org/2000/svg" id="svg1" width="412.027" height="314.36" viewBox="0 0 412.027 314.36"><g id="g1"><g id="group-R5"><path id="path2" d="M118.02 1435.43c0 509.35 604.89 922.25 1351.08 922.25 746.2 0 1351.09-412.9 1351.09-922.25 0-509.36-604.89-922.25-1351.09-922.25-746.19 0-1351.08 412.89-1351.08 922.25" style="fill:#ed1c24;fill-opacity:1;fill-rule:nonzero;stroke:none" transform="matrix(.13333 0 0 -.13333 0 314.36)"/><path id="path3" d="M993.941 1199.35c-37.363-136.09-71.242-193.23-114.101-209.721-114.371-43.988-233.703 87.731-312.824 264.481-79.125 176.74-187.004 523.68-187.004 523.68-24.641 23.46-34.891 52.42-23.071 72.1 15.106 25.13 60.52 25.58 101.438.99 21.855-13.13 38.008-30.75 46.016-48.14l5.316-10.5c7.324-14.95 13.352-32.55 13.352-32.55 11.296-32.5 8.476-86.01 90.421-328.84 81.95-242.84 143.934-310.47 179.254-310.47 35.325 0 91.657 119.91 176.242 422.09 84.59 302.18 99.3 412.34 103.08 428.62 3.78 16.29 1.51 31.81 1.51 31.81l-5.03 31.95c-5.71 19.66-3.32 37.89 8.31 48.73 20.35 18.98 61.29 8.16 91.43-24.17 22.95-24.61 33.03-54.58 27.55-75.87 0 0-164.52-648.12-201.889-784.19" style="fill:#fff;fill-opacity:1;fill-rule:evenodd;stroke:none" transform="matrix(.13333 0 0 -.13333 0 314.36)"/><path id="path4" d="M1293.05 1104.15c21.98-16.13 33.61-39.74 27.7-61.78-8.46-31.6-49.75-47.991-92.21-36.61-27.7 7.42-49.05 24.82-58.21 44.79 0 0-34.73 53.91-34.13 177.7s.87 186.44 6.17 216.28l1.02 5.95c3.1 22.83 15.17 41.4 33.96 48.23 30.74 11.19 67.85-13.23 82.89-54.53 4.93-13.56 6.87-27.26 6.17-39.93-1.43-25.94-9.12-126.12-10.17-156.52s4.13-75.65 28.82-128.12z" style="fill:#fff;fill-opacity:1;fill-rule:evenodd;stroke:none" transform="matrix(.13333 0 0 -.13333 0 314.36)"/><path id="path5" d="M1143.01 1620.45c0 41.25 33.45 74.7 74.71 74.7s74.71-33.45 74.71-74.7c0-41.27-33.45-74.71-74.71-74.71s-74.71 33.44-74.71 74.71" style="fill:#fff;fill-opacity:1;fill-rule:nonzero;stroke:none" transform="matrix(.13333 0 0 -.13333 0 314.36)"/><path id="path6" d="M1691.68 1265.62c18.2-74.04 60.69-125.29 71.88-124.68 11.2.6 26.7 1.82 95.89 119.83 69.18 118 120.58 256.3 120.58 256.3 5.94 12.4 18.61 20.96 33.28 20.96 20.36 0 36.88-16.51 36.88-36.87 0-2.07-.18-4.11-.5-6.08l-.07-.51s-13.48-87.08-83.46-245.14-134.94-226.24-172.18-236.51-77.81 19.9-139.44 136.23c-61.64 116.33-62.87 187.59-62.87 187.59-7.59 35.67 3.24 68.19 24.16 72.64 13.71 2.91 28.35-6.93 38.96-24.09 0 0 18.68-45.63 36.89-119.67" style="fill:#fff;fill-opacity:1;fill-rule:evenodd;stroke:none" transform="matrix(.13333 0 0 -.13333 0 314.36)"/><path id="path7" d="M1564.68 1028.02a23.25 23.25 0 0 0 1.81-9c0-11-7.66-20.258-17.95-22.61-24.25-5.68-57.21 2.102-86.76 22.78-13.38 9.37-24.52 20.3-32.97 31.76-19.17 25.96-111.32 209.1-103.19 551.95 8.14 342.85 69.7 497.39 69.7 497.39l.37.98c6.19 11.92 15.78 20.52 27.32 24.73 34.76 12.64 79.11-21.55 99.07-76.37 10.5-28.88 12.15-57.73 6.27-80.41 0 0-70.45-218.5-66.75-444.48s97.56-480.35 97.56-480.35z" style="fill:#fff;fill-opacity:1;fill-rule:evenodd;stroke:none" transform="matrix(.13333 0 0 -.13333 0 314.36)"/><path id="path8" d="m2472.13 1513.64 6.18.24c43.3 0 78.4-35.1 78.4-78.41 0-4.47-.37-8.86-1.09-13.14-6.25-37.04-35.77-129.7-46.53-175.14-10.75-45.45-12.26-92.35 11.78-137.16 24.04-44.82 40.2-59.99 40.2-59.99 9.26-9.54 14.36-21.17 14.36-34.01 0-26.159-21.21-47.37-47.38-47.37-6.12 0-11.97 1.16-17.34 3.27 0 0-113.09 43.44-135.94 197.18 0 0 .64 13.1-2.69 15.76s-8.91-2.13-16.89-9.3c-7.98-7.19-78.6-71.66-125.98-104.68s-120.55-65.63-120.55-65.63c-11.39-5.06-22.03-7.401-33.22-7.401-43.31 0-78.41 35.101-78.41 78.411 0 3.36.21 6.67.62 9.93 4.88 38.61 31.05 214.03 164.04 320.89 133 106.86 310.44 106.55 310.44 106.55m-346.16-383.1s108.86 74.08 175.03 141.1c66.16 67 112.25 106.31 127.52 149.57 0 0-115.09-19.8-196.52-102.07-81.43-82.29-106.03-188.6-106.03-188.6" style="fill:#fff;fill-opacity:1;fill-rule:evenodd;stroke:none" transform="matrix(.13333 0 0 -.13333 0 314.36)"/><path id="path9" d="M2649.04 2233.71c0 48.64 39.43 88.07 88.06 88.07 48.64 0 88.07-39.43 88.07-88.07 0-48.63-39.43-88.05-88.07-88.05-48.63 0-88.06 39.42-88.06 88.05z" style="fill:none;stroke:#231f20;stroke-width:15.151;stroke-linecap:butt;stroke-linejoin:miter;stroke-miterlimit:3.86369;stroke-dasharray:none;stroke-opacity:1" transform="matrix(.13333 0 0 -.13333 0 314.36)"/><path id="path10" d="M2765.48 2284.67c4.09-1.7 7.54-4.21 10.36-7.51 2.34-2.73 4.18-5.75 5.55-9.05q2.04-4.965 2.04-11.31c0-5.11-1.29-10.15-3.86-15.11-2.58-4.92-6.84-8.39-12.78-10.44 4.96-1.99 8.47-4.84 10.51-8.54 2.09-3.65 3.14-9.25 3.14-16.78v-7.23c0-4.91.19-8.25.59-9.99.58-2.78 1.94-4.82 4.08-6.14v-2.7h-24.74c-.68 2.38-1.17 4.31-1.46 5.77-.58 3.01-.9 6.1-.95 9.27l-.14 10c-.1 6.86-1.37 11.43-3.8 13.72-2.38 2.28-6.89 3.42-13.5 3.42h-23.21v-42.18h-21.97v107.58h52.77c7.54-.15 13.33-1.07 17.37-2.78m-48.17-15.9v-28.91h25.47c5.06 0 8.86.59 11.39 1.76 4.47 2.04 6.71 6.08 6.71 12.11 0 6.52-2.16 10.9-6.5 13.14-2.43 1.26-6.08 1.9-10.94 1.9z" style="fill:#231f20;fill-opacity:1;fill-rule:evenodd;stroke:none" transform="matrix(.13333 0 0 -.13333 0 314.36)"/><path id="path11" d="m385.445 156.492 13.176 9.809q63.65 49.636 72.07 72.359h-2.238c-48.43-16.64-76.094-44.031-83.008-82.168m104.883 108.809 17.664-6.742c.93-16.258-3.644-37.848-13.738-64.778l-2.524-19.34c.364-18.511 8.598-34.691 24.676-48.519l1.403-14.301c-6.731-.93-12.25-1.402-16.543-1.41-11.411 0-24.961 11.41-40.664 34.219l-4.489 20.468-1.125 7.012-2.238-.281c-36.09-33.649-63.293-51.137-81.613-52.438-10.84 1.301-17.657 4.848-20.469 10.661l-1.961 13.179c12.152 79.078 59.356 119.828 141.621 122.27" style="fill:#231f20;fill-opacity:1;fill-rule:evenodd;stroke:none" transform="matrix(.13333 0 0 -.13333 0 314.36)"/><path id="path12" d="m575.582 158.73 3.078-4.199 4.488-2.25 7.012-3.09-15.14 12.059zm2.801 101.239H602.5c20.938 0 31.402-10.571 31.41-31.688l-9.535-2.812-26.641 5.332-2.523-2.52h-2.246l-2.52 2.52h-2.523l-7.016-2.52-2.523 2.52v-2.52l-2.524 2.52h-2.246l-19.351-10.371c.75-6.551 21.683-26.84 62.824-60.86 9.531-11.59 14.301-21.308 14.301-29.172l-12.063-10.367c-49.914 0-74.875 11.399-74.875 34.211v2.809l12.059 15.699c-25.613 25.801-39.262 46.922-40.942 63.379 7.102 15.891 28.032 23.832 62.817 23.84" style="fill:#231f20;fill-opacity:1;fill-rule:evenodd;stroke:none" transform="matrix(.13333 0 0 -.13333 0 314.36)"/><path id="path13" d="M936.781 427.672c13.828 0 22.707-5.242 26.641-15.703 0-5.797-13.371-12.821-40.102-21.039-23.929-26.168-40.757-63.938-50.476-113.289v-5.332h2.804c51.969 10.461 85.618 15.691 100.954 15.703h5.332v-2.52c0-8.793-7.95-13.183-23.836-13.183v-2.528l2.523-2.801v-2.519l-93.105-23.84v-21.039l-2.528-2.523 2.528-2.797V177.52a438.7 438.7 0 0 1 8.132-84.13h-2.804c3.547-7.85 5.32-19.25 5.324-34.218v-2.524c0-6.347-3.555-13.449-10.652-21.308-19.45 3.37-29.164 9.531-29.164 18.512 5.226 0 7.839 3.558 7.847 10.66L833.023 227.44c-6.734 0-25.335-9.632-55.812-28.89-8.777 0-14.106 8.781-15.984 26.371 16.461 15.137 42.152 27.379 77.125 36.726 20.75 110.684 53.558 166.012 98.429 166.024" style="fill:#231f20;fill-opacity:1;fill-rule:evenodd;stroke:none" transform="matrix(.13333 0 0 -.13333 0 314.36)"/><path id="path14" d="M999.879 264.742c19.261-3.742 28.871-12.902 28.881-27.492-3.74-8.23-7.56-12.711-11.49-13.461l-11.78 2.531-46.271-103.769-20.196-2.52h-5.886c-19.266 17.391-28.883 42.809-28.883 76.278v10.941c0 20 2.891 30 8.691 30h8.692c11.023 0 17.758-20.941 20.195-62.809h3.078c19.82 60.188 38.137 90.289 54.969 90.301" style="fill:#231f20;fill-opacity:1;fill-rule:evenodd;stroke:none" transform="matrix(.13333 0 0 -.13333 0 314.36)"/><path id="path15" d="M1113.74 258.852h11.49c11.03 0 19.63-5.711 25.81-17.11V227.16c0-8.609-8.61-25.621-25.81-51.039 0-11.41-2.9-17.109-8.69-17.109h-8.69l-17.11 14.578v2.531q0 9.808 25.8 51.039v2.52c-32.53-23-48.8-44.961-48.8-65.899v-2.242c0-8.797 3.84-14.5 11.5-17.109h11.5c12.53 0 49.91 8.129 112.18 24.402h5.61v-5.051c-27.87-23.562-63.3-38.14-106.29-43.75h-20.19c-32.53 3.367-48.8 17.199-48.8 41.508v9.531c0 27.11 22.06 55.52 66.18 85.25z" style="fill:#231f20;fill-opacity:1;fill-rule:evenodd;stroke:none" transform="matrix(.13333 0 0 -.13333 0 314.36)"/><path id="path16" d="m1242.18 158.73 3.08-4.199 4.49-2.25 7.01-3.09-15.14 12.059zm2.8 101.239h24.12c20.93 0 31.4-10.571 31.41-31.688l-9.54-2.812-26.64 5.332-2.52-2.52h-2.24l-2.53 2.52h-2.52l-7.02-2.52-2.52 2.52v-2.52l-2.52 2.52h-2.25l-19.35-10.371c.75-6.551 21.68-26.84 62.82-60.86 9.54-11.59 14.3-21.308 14.3-29.172l-12.05-10.367c-49.92 0-74.88 11.399-74.88 34.211v2.809l12.06 15.699c-25.62 25.801-39.26 46.922-40.95 63.379 7.1 15.891 28.04 23.832 62.82 23.84" style="fill:#231f20;fill-opacity:1;fill-rule:evenodd;stroke:none" transform="matrix(.13333 0 0 -.13333 0 314.36)"/><path id="path17" d="M1400.9 245.391h7.85c13.84 0 22.71-6.832 26.65-20.469 0-9.172-19.45-17.031-58.33-23.563l-31.69-17.109v-13.461c0-9.539 17.67-15.148 53-16.828l87.22 6.73c7.1-3.359 10.65-6.73 10.65-10.089-22.99-20.391-59.17-30.571-108.53-30.571-54.78 0-82.16 23.739-82.16 71.231 0 19.258 31.77 37.289 95.34 54.129" style="fill:#231f20;fill-opacity:1;fill-rule:evenodd;stroke:none" transform="matrix(.13333 0 0 -.13333 0 314.36)"/><path id="path18" d="m1519.81 212.57 12.62-38.422-13.46 22.442c11.4-28.598 24.3-45.621 38.7-51.039 28.04 11.219 42.07 22.058 42.07 32.531-3.37 24.117-23 40.008-58.9 47.68-14.02 1.117-21.03-3.293-21.03-13.192m14.3 45.149c65.63-15.699 98.44-47.297 98.44-94.778q-41.79-42.912-72.36-42.91c-27.29 0-48.51 17.391-63.66 52.16-5.24 0-9.06 14.207-11.49 42.629 0 28.602 16.35 42.899 49.07 42.899" style="fill:#231f20;fill-opacity:1;fill-rule:evenodd;stroke:none" transform="matrix(.13333 0 0 -.13333 0 314.36)"/><path id="path19" d="M1806.42 259.129h14.3c4.49-1.32 9.16-9.258 14.02-23.84l-2.8-47.398c0-15.7 5.69-32.711 17.1-51.039v-6.723l-8.41-10.098h-8.69c-22.63 0-33.94 22.617-33.94 67.86v27.211c0 29.347 2.81 44.019 8.42 44.027m.28 158.441h10.09c15.33 0 22.99-7.949 23-23.84v-10.089c-2.25-6.731-8.89-10.102-19.91-10.102-7.11 0-14.78 7.859-23 23.563 2.25 13.648 5.52 20.468 9.82 20.468" style="fill:#231f20;fill-opacity:1;fill-rule:evenodd;stroke:none" transform="matrix(.13333 0 0 -.13333 0 314.36)"/><path id="path20" d="M1869.79 279.32c25.24 0 44.4-26.64 57.5-79.929h5.04c9.34 39.449 22.62 59.168 39.83 59.168 17.19-3.547 38.04-32.149 62.53-85.809 5.98-9.531 18.42-22.352 37.3-38.418v-2.801c0-10.48-3.36-17.289-10.1-20.472-12.9 0-32.81 19.531-59.73 58.613-10.47 25.418-19.63 41.207-27.48 47.387-5.98-5.239-17.58-32.809-34.77-82.727l-2.53-2.801h-7.57c-10.1 3.36-24.31 36.821-42.63 100.391l-2.24 2.808h-2.52l-5.05-23.558v-11.781c0-33.461 10.74-72.731 32.25-117.782v-9.25h-4.77c-28.23 9.91-46.55 55.231-54.97 136.012v11.777c0 28.223 6.64 47.954 19.91 59.172" style="fill:#231f20;fill-opacity:1;fill-rule:evenodd;stroke:none" transform="matrix(.13333 0 0 -.13333 0 314.36)"/><path id="path21" d="m2068.91 152.281 2.24-2.519V132.93l-2.24-2.532 2.24-2.238v-4.762l-2.24-2.527 2.24-2.242v-2.527l-2.24-2.243c6.53-53.277 17.66-80.757 33.37-82.449l2.24 2.52-2.24 7.3c0 21.31-5.61 70.391-16.83 147.231l7.29 5.051h2.25l2.52-2.532 2.25 2.532h2.52c12.71-4.692 19.06-17.582 19.07-38.711 0-6.539 1.49-9.809 4.48-9.809 27.11 23.36 40.66 41.129 40.67 53.278v16.832c-6.92 11.398-17.3 17.097-31.13 17.109-29.92 0-51.32-26.641-64.22-79.93zm73.75 106.571c36.46-8.051 54.69-25.801 54.69-53.282v-4.769q0-39.837-54.69-75.16l-2.52 2.519-2.24-2.519h-7.3l-7.01 4.757v-2.238c6.36-50.281 9.53-87.398 9.54-111.328 0-4.3-5.52-9.902-16.55-16.832-27.67 0-47.59 14.5-59.73 43.469-4.68 15.14-7.01 28.89-7.01 41.23 0 116.102 30.93 174.153 92.82 174.153" style="fill:#231f20;fill-opacity:1;fill-rule:evenodd;stroke:none" transform="matrix(.13333 0 0 -.13333 0 314.36)"/><path id="path22" d="m2241.38 212.57 12.61-38.422-13.46 22.442c11.41-28.598 24.3-45.621 38.7-51.039 28.05 11.219 42.07 22.058 42.07 32.531-3.37 24.117-22.99 40.008-58.89 47.68-14.03 1.117-21.03-3.293-21.03-13.192m14.3 45.149c65.62-15.699 98.43-47.297 98.43-94.778-27.86-28.609-51.98-42.91-72.35-42.91-27.3 0-48.52 17.391-63.66 52.16-5.24 0-9.07 14.207-11.5 42.629 0 28.602 16.35 42.899 49.08 42.899" style="fill:#231f20;fill-opacity:1;fill-rule:evenodd;stroke:none" transform="matrix(.13333 0 0 -.13333 0 314.36)"/><path id="path23" d="m2418.89 158.73 3.09-4.199 4.48-2.25 7.02-3.09-15.15 12.059zm2.81 101.239h24.12c20.93 0 31.39-10.571 31.4-31.688l-9.53-2.812-26.65 5.332-2.52-2.52h-2.24l-2.53 2.52h-2.52l-7.01-2.52-2.52 2.52v-2.52l-2.53 2.52h-2.24l-19.35-10.371c.75-6.551 21.68-26.84 62.82-60.86 9.53-11.59 14.3-21.308 14.3-29.172l-12.06-10.367c-49.92 0-74.88 11.399-74.88 34.211v2.809l12.06 15.699c-25.62 25.801-39.26 46.922-40.94 63.379 7.1 15.891 28.03 23.832 62.82 23.84" style="fill:#231f20;fill-opacity:1;fill-rule:evenodd;stroke:none" transform="matrix(.13333 0 0 -.13333 0 314.36)"/><path id="path24" d="M2491.81 259.129h14.3c4.49-1.32 9.16-9.258 14.02-23.84l-2.81-47.398c0-15.7 5.7-32.711 17.11-51.039v-6.723l-8.41-10.098h-8.7c-22.62 0-33.93 22.617-33.93 67.86v27.211c0 29.347 2.81 44.019 8.42 44.027m.27 158.441h10.1c15.33 0 22.99-7.949 23-23.84v-10.089c-2.25-6.731-8.89-10.102-19.91-10.102-7.11 0-14.78 7.859-23 23.563 2.24 13.648 5.51 20.468 9.81 20.468" style="fill:#231f20;fill-opacity:1;fill-rule:evenodd;stroke:none" transform="matrix(.13333 0 0 -.13333 0 314.36)"/><path id="path25" d="M2565.84 177.242c12.15-17.211 21.3-25.801 27.49-25.801 23.55 0 52.52 16.258 86.93 48.789v11.219c-6.55 13.473-18.14 20.192-34.78 20.192-17.2-2.621-43.74-20.75-79.64-54.399m24.96 214.246h14.86l14.87-17.097v-2.809c-16.83-14.023-30.85-41.691-42.07-83.012l-10.1-65.621h2.53c31.41 26.731 56.27 40.102 74.59 40.102 30.66 0 53.84-19.071 69.55-57.211v-17.11c-11.22-22.429-44.31-44.398-99.27-65.89l-17.39-2.809q-49.92 5.597-49.92 40.098v8.41l7.58 11.5c-12.16 0-18.79 10.473-19.92 31.41 0 53.102 15.71 111.242 47.12 174.43z" style="fill:#231f20;fill-opacity:1;fill-rule:evenodd;stroke:none" transform="matrix(.13333 0 0 -.13333 0 314.36)"/><path id="path26" d="M2764.95 428.789c6.54 0 12.05-10.09 16.55-30.277-13.28-49.364-19.91-89.66-19.91-120.871 0-41.321 9.9-92.743 29.72-154.243l-3.36-3.367h-9.82c-21.5 0-35.81 20.098-42.91 60.301-8.78 32.328-13.17 64.77-13.17 97.309 7.47 100.757 15.13 151.14 22.99 151.148z" style="fill:#231f20;fill-opacity:1;fill-rule:evenodd;stroke:none" transform="matrix(.13333 0 0 -.13333 0 314.36)"/><path id="path27" d="M2877.41 258.852h11.49c11.03 0 19.63-5.711 25.81-17.11V227.16c0-8.609-8.61-25.621-25.81-51.039 0-11.41-2.89-17.109-8.69-17.109h-8.69l-17.11 14.578v2.531q0 9.808 25.8 51.039v2.52c-32.53-23-48.79-44.961-48.79-65.899v-2.242c0-8.797 3.82-14.5 11.5-17.109h11.49c12.52 0 49.91 8.129 112.18 24.402h5.6v-5.051c-27.85-23.562-63.29-38.14-106.28-43.75h-20.19c-32.53 3.367-48.8 17.199-48.8 41.508v9.531c0 27.11 22.06 55.52 66.19 85.25z" style="fill:#231f20;fill-opacity:1;fill-rule:evenodd;stroke:none" transform="matrix(.13333 0 0 -.13333 0 314.36)"/><path id="path28" d="M3030.77 116.66c18.13 0 27.19-6.531 27.2-19.62v-4.778c-4.86-13.082-12.34-19.614-22.43-19.621-19.83 4.48-29.73 13.46-29.73 26.918 4.3 11.41 12.61 17.101 24.96 17.101m32.25 284.649c8.78 0 17.85-4.957 27.2-14.868v-4.761c-33.09-87.129-49.63-162.371-49.63-225.75l2.52-12.34-12.34-12.34h-12.62c-8.23 0-12.34 21.309-12.34 63.93 0 37.211 16.55 105.07 49.64 203.601l2.52 2.528z" style="fill:#231f20;fill-opacity:1;fill-rule:evenodd;stroke:none" transform="matrix(.13333 0 0 -.13333 0 314.36)"/><path id="path29" d="M318.473 81.031h-9.297c-18.789 4.399-28.18 9.899-28.192 16.488 0 68.18-6.296 153.743-18.89 256.7-3.395 0-13.789-40.578-31.188-121.75-8.793-8.789-17.082-13.188-24.89-13.199h-2.996c-28.989 0-63.372 38.39-103.16 115.152-17.395 20.598-28.786 31.59-34.188 32.988h-12.59c-6.195 0-10.39-15.39-12.598-46.18v-3.3c4.797-116.141 13.196-174.211 25.188-174.219l3-3.313h2.996c-1.39-30.777-7.586-46.167-18.586-46.18-21.789 0-34.285 36.192-37.488 108.563C5.207 252.961.012 292.441 0 321.23v19.79C0 385.012 14.606 407 43.785 407c43.184 0 85.867-40.578 128.047-121.758l21.59-26.383c7.793 0 16.191 36.192 25.191 108.551 12.594 42.981 23.989 69.262 34.184 78.871 26.988 0 40.484-13.101 40.484-39.281 12.203-63.969 22.594-167.129 31.188-309.48l3.297-9.891z" style="fill:#231f20;fill-opacity:1;fill-rule:evenodd;stroke:none" transform="matrix(.13333 0 0 -.13333 0 314.36)"/><path id="path30" d="M508.879 389.609h1.566c11.989-2.089 17.977-6.187 17.985-12.308-3-19.821-16.492-43.012-40.477-69.61h-2.93c-7.695 0-12.703 2.278-15.058 6.84q-.002 4.694 22.484 36.957c6.262 8.602 10.231 20.391 11.93 35.391z" style="fill:#231f20;fill-opacity:1;fill-rule:evenodd;stroke:none" transform="matrix(.13333 0 0 -.13333 0 314.36)"/><path id="path31" d="M508.879 389.609h1.566c11.989-2.089 17.977-6.187 17.985-12.308-3-19.821-16.492-43.012-40.477-69.61h-2.93c-7.695 0-12.703 2.278-15.058 6.84q-.002 4.694 22.484 36.957c6.262 8.602 10.231 20.391 11.93 35.391z" style="fill:none;stroke:#231f20;stroke-width:4.382;stroke-linecap:butt;stroke-linejoin:miter;stroke-miterlimit:3.86369;stroke-dasharray:none;stroke-opacity:1" transform="matrix(.13333 0 0 -.13333 0 314.36)"/></g></g></svg>